<svg width="16" height="16" viewBox="0 0 16 16" fill="none" xmlns="http://www.w3.org/2000/svg">
  <path fill-rule="evenodd" clip-rule="evenodd" d="M8 0C3.58 0 0 3.58 0 8C0 11.54 2.29 14.53 5.47 15.59C5.87 15.66 6.02 15.42 6.02 15.21C6.02 15.02 6.01 14.39 6.01 13.72C4 14.09 3.48 13.23 3.34 12.8C3.25 12.57 2.84 11.84 2.5 11.65C2.22 11.5 1.82 11.13 2.49 11.12C3.12 11.11 3.57 11.7 3.72 11.94C4.44 13.15 5.59 12.82 6.05 12.61C6.12 12.1 6.33 11.76 6.56 11.56C4.78 11.36 2.92 10.67 2.92 7.6C2.92 6.73 3.23 6.03 3.74 5.5C3.66 5.3 3.39 4.47 3.82 3.36C3.82 3.36 4.49 3.14 6.02 4.19C6.66 4.01 7.34 3.92 8.02 3.92C8.7 3.92 9.38 4.01 10.02 4.19C11.55 3.14 12.22 3.36 12.22 3.36C12.65 4.47 12.38 5.3 12.3 5.5C12.81 6.03 13.12 6.73 13.12 7.6C13.12 10.68 11.25 11.36 9.47 11.56C9.76 11.81 10.01 12.3 10.01 13.07C10.01 14.16 10 14.96 10 15.21C10 15.42 10.15 15.66 10.55 15.59C13.71 14.53 16 11.54 16 8C16 3.58 12.42 0 8 0Z" fill="white"/>
</svg>
